<mxfile host="app.diagrams.net" modified="2020-12-08T21:37:36.330Z" agent="5.0 (Windows NT 10.0; Win64; x64) AppleWebKit/537.36 (KHTML, like Gecko) Chrome/87.0.4280.88 Safari/537.36" etag="Mc1osOVHEeWqzxGGz2H7" version="13.11.0" type="github">
  <diagram id="63e2r4yiwwz2ZCU1mHES" name="Page-1">
    <mxGraphModel dx="854" dy="752" grid="1" gridSize="10" guides="1" tooltips="1" connect="1" arrows="1" fold="1" page="1" pageScale="1" pageWidth="1100" pageHeight="850" math="0" shadow="0">
      <root>
        <mxCell id="0" />
        <mxCell id="1" parent="0" />
        <mxCell id="ALNQ_rp1Pmp0EkHWgzeo-4" value="&lt;p style=&quot;font-size: 20px&quot;&gt;OFC - 1&lt;/p&gt;" style="rounded=0;whiteSpace=wrap;html=1;fontStyle=1" vertex="1" parent="1">
          <mxGeometry x="730" y="240" width="120" height="60" as="geometry" />
        </mxCell>
        <mxCell id="ALNQ_rp1Pmp0EkHWgzeo-6" value="&lt;p style=&quot;font-size: 20px&quot;&gt;OFC - 2&lt;/p&gt;" style="rounded=0;whiteSpace=wrap;html=1;fontStyle=1" vertex="1" parent="1">
          <mxGeometry x="730" y="340" width="120" height="60" as="geometry" />
        </mxCell>
        <mxCell id="ALNQ_rp1Pmp0EkHWgzeo-8" value="" style="endArrow=none;dashed=1;html=1;strokeWidth=4;fontStyle=1" edge="1" parent="1">
          <mxGeometry width="50" height="50" relative="1" as="geometry">
            <mxPoint x="10" y="320" as="sourcePoint" />
            <mxPoint x="570" y="320" as="targetPoint" />
          </mxGeometry>
        </mxCell>
        <mxCell id="ALNQ_rp1Pmp0EkHWgzeo-11" value="&lt;pre&gt;&lt;font style=&quot;font-size: 18px&quot;&gt;Local CDT&lt;/font&gt;&lt;/pre&gt;" style="rounded=0;whiteSpace=wrap;html=1;fontStyle=1;fontSize=20;" vertex="1" parent="1">
          <mxGeometry x="30" y="90" width="120" height="40" as="geometry" />
        </mxCell>
        <mxCell id="ALNQ_rp1Pmp0EkHWgzeo-15" value="" style="endArrow=none;dashed=1;html=1;fontStyle=1;fontSize=20;" edge="1" parent="1">
          <mxGeometry width="50" height="50" relative="1" as="geometry">
            <mxPoint x="85" y="198" as="sourcePoint" />
            <mxPoint x="115" y="198" as="targetPoint" />
          </mxGeometry>
        </mxCell>
        <mxCell id="ALNQ_rp1Pmp0EkHWgzeo-17" value="&lt;br&gt;&lt;br&gt;&lt;br&gt;&lt;br&gt;&lt;br&gt;&lt;br&gt;&lt;br&gt;&lt;br&gt;&lt;br&gt;&lt;br&gt;&lt;br&gt;&lt;br&gt;&lt;br&gt;&lt;font style=&quot;font-size: 18px&quot;&gt;Local Crate&lt;/font&gt;" style="rounded=0;whiteSpace=wrap;html=1;fillColor=none;dashed=1;fontStyle=1" vertex="1" parent="1">
          <mxGeometry x="20" y="80" width="140" height="220" as="geometry" />
        </mxCell>
        <mxCell id="ALNQ_rp1Pmp0EkHWgzeo-20" value="&lt;font style=&quot;font-size: 16px&quot;&gt;A&lt;br style=&quot;padding: 0px ; margin: 0px&quot;&gt;D&lt;br style=&quot;padding: 0px ; margin: 0px&quot;&gt;C&lt;/font&gt;" style="shape=parallelogram;perimeter=parallelogramPerimeter;whiteSpace=wrap;html=1;fixedSize=1;fontSize=18;align=center;size=40;direction=north;flipV=1;" vertex="1" parent="1">
          <mxGeometry x="30" y="140" width="30" height="120" as="geometry" />
        </mxCell>
        <mxCell id="ALNQ_rp1Pmp0EkHWgzeo-22" value="&lt;font style=&quot;font-size: 16px&quot;&gt;A&lt;br style=&quot;padding: 0px ; margin: 0px&quot;&gt;D&lt;br style=&quot;padding: 0px ; margin: 0px&quot;&gt;C&lt;/font&gt;" style="shape=parallelogram;perimeter=parallelogramPerimeter;whiteSpace=wrap;html=1;fixedSize=1;fontSize=18;align=center;size=40;direction=north;flipV=1;" vertex="1" parent="1">
          <mxGeometry x="120" y="140" width="30" height="120" as="geometry" />
        </mxCell>
        <mxCell id="ALNQ_rp1Pmp0EkHWgzeo-24" value="&lt;font style=&quot;font-size: 16px&quot;&gt;A&lt;br style=&quot;padding: 0px ; margin: 0px&quot;&gt;D&lt;br style=&quot;padding: 0px ; margin: 0px&quot;&gt;C&lt;/font&gt;" style="shape=parallelogram;perimeter=parallelogramPerimeter;whiteSpace=wrap;html=1;fixedSize=1;fontSize=18;align=center;size=40;direction=north;flipV=1;" vertex="1" parent="1">
          <mxGeometry x="50" y="140" width="30" height="120" as="geometry" />
        </mxCell>
        <mxCell id="ALNQ_rp1Pmp0EkHWgzeo-25" value="" style="shape=flexArrow;endArrow=classic;html=1;opacity=90;strokeColor=#007FFF;fillColor=#007FFF;width=1;endWidth=12.857142857142858;endSize=3.628571428571429;" edge="1" parent="1">
          <mxGeometry width="50" height="50" relative="1" as="geometry">
            <mxPoint x="43" y="130" as="sourcePoint" />
            <mxPoint x="43" y="160" as="targetPoint" />
          </mxGeometry>
        </mxCell>
        <mxCell id="ALNQ_rp1Pmp0EkHWgzeo-26" value="" style="shape=flexArrow;endArrow=classic;html=1;opacity=90;strokeColor=#007FFF;fillColor=#007FFF;width=1;endWidth=12.857142857142858;endSize=3.628571428571429;" edge="1" parent="1">
          <mxGeometry width="50" height="50" relative="1" as="geometry">
            <mxPoint x="63" y="130" as="sourcePoint" />
            <mxPoint x="63" y="160" as="targetPoint" />
          </mxGeometry>
        </mxCell>
        <mxCell id="ALNQ_rp1Pmp0EkHWgzeo-28" value="" style="shape=flexArrow;endArrow=classic;html=1;opacity=90;strokeColor=#007FFF;fillColor=#007FFF;width=1;endWidth=12.857142857142858;endSize=3.628571428571429;" edge="1" parent="1">
          <mxGeometry width="50" height="50" relative="1" as="geometry">
            <mxPoint x="133" y="130" as="sourcePoint" />
            <mxPoint x="133" y="160" as="targetPoint" />
          </mxGeometry>
        </mxCell>
        <mxCell id="ALNQ_rp1Pmp0EkHWgzeo-29" value="&lt;pre&gt;&lt;font style=&quot;font-size: 18px&quot;&gt;Local CDT&lt;/font&gt;&lt;/pre&gt;" style="rounded=0;whiteSpace=wrap;html=1;fontStyle=1;fontSize=20;" vertex="1" parent="1">
          <mxGeometry x="290" y="90" width="120" height="40" as="geometry" />
        </mxCell>
        <mxCell id="ALNQ_rp1Pmp0EkHWgzeo-30" value="" style="endArrow=none;dashed=1;html=1;fontStyle=1;fontSize=20;" edge="1" parent="1">
          <mxGeometry width="50" height="50" relative="1" as="geometry">
            <mxPoint x="345" y="198" as="sourcePoint" />
            <mxPoint x="375" y="198" as="targetPoint" />
          </mxGeometry>
        </mxCell>
        <mxCell id="ALNQ_rp1Pmp0EkHWgzeo-31" value="&lt;br&gt;&lt;br&gt;&lt;br&gt;&lt;br&gt;&lt;br&gt;&lt;br&gt;&lt;br&gt;&lt;br&gt;&lt;br&gt;&lt;br&gt;&lt;br&gt;&lt;br&gt;&lt;br&gt;&lt;font style=&quot;font-size: 18px&quot;&gt;Local Crate&lt;/font&gt;" style="rounded=0;whiteSpace=wrap;html=1;fillColor=none;dashed=1;fontStyle=1" vertex="1" parent="1">
          <mxGeometry x="280" y="80" width="140" height="220" as="geometry" />
        </mxCell>
        <mxCell id="ALNQ_rp1Pmp0EkHWgzeo-32" value="&lt;font style=&quot;font-size: 16px&quot;&gt;A&lt;br style=&quot;padding: 0px ; margin: 0px&quot;&gt;D&lt;br style=&quot;padding: 0px ; margin: 0px&quot;&gt;C&lt;/font&gt;" style="shape=parallelogram;perimeter=parallelogramPerimeter;whiteSpace=wrap;html=1;fixedSize=1;fontSize=18;align=center;size=40;direction=north;flipV=1;" vertex="1" parent="1">
          <mxGeometry x="290" y="140" width="30" height="120" as="geometry" />
        </mxCell>
        <mxCell id="ALNQ_rp1Pmp0EkHWgzeo-33" value="&lt;font style=&quot;font-size: 16px&quot;&gt;A&lt;br style=&quot;padding: 0px ; margin: 0px&quot;&gt;D&lt;br style=&quot;padding: 0px ; margin: 0px&quot;&gt;C&lt;/font&gt;" style="shape=parallelogram;perimeter=parallelogramPerimeter;whiteSpace=wrap;html=1;fixedSize=1;fontSize=18;align=center;size=40;direction=north;flipV=1;" vertex="1" parent="1">
          <mxGeometry x="380" y="140" width="30" height="120" as="geometry" />
        </mxCell>
        <mxCell id="ALNQ_rp1Pmp0EkHWgzeo-34" value="&lt;font style=&quot;font-size: 16px&quot;&gt;A&lt;br style=&quot;padding: 0px ; margin: 0px&quot;&gt;D&lt;br style=&quot;padding: 0px ; margin: 0px&quot;&gt;C&lt;/font&gt;" style="shape=parallelogram;perimeter=parallelogramPerimeter;whiteSpace=wrap;html=1;fixedSize=1;fontSize=18;align=center;size=40;direction=north;flipV=1;" vertex="1" parent="1">
          <mxGeometry x="310" y="140" width="30" height="120" as="geometry" />
        </mxCell>
        <mxCell id="ALNQ_rp1Pmp0EkHWgzeo-35" value="" style="shape=flexArrow;endArrow=classic;html=1;opacity=90;strokeColor=#007FFF;fillColor=#007FFF;width=1;endWidth=12.857142857142858;endSize=3.628571428571429;" edge="1" parent="1">
          <mxGeometry width="50" height="50" relative="1" as="geometry">
            <mxPoint x="303" y="130" as="sourcePoint" />
            <mxPoint x="303" y="160" as="targetPoint" />
          </mxGeometry>
        </mxCell>
        <mxCell id="ALNQ_rp1Pmp0EkHWgzeo-36" value="" style="shape=flexArrow;endArrow=classic;html=1;opacity=90;strokeColor=#007FFF;fillColor=#007FFF;width=1;endWidth=12.857142857142858;endSize=3.628571428571429;" edge="1" parent="1">
          <mxGeometry width="50" height="50" relative="1" as="geometry">
            <mxPoint x="323" y="130" as="sourcePoint" />
            <mxPoint x="323" y="160" as="targetPoint" />
          </mxGeometry>
        </mxCell>
        <mxCell id="ALNQ_rp1Pmp0EkHWgzeo-37" value="" style="shape=flexArrow;endArrow=classic;html=1;opacity=90;strokeColor=#007FFF;fillColor=#007FFF;width=1;endWidth=12.857142857142858;endSize=3.628571428571429;" edge="1" parent="1">
          <mxGeometry width="50" height="50" relative="1" as="geometry">
            <mxPoint x="393" y="130" as="sourcePoint" />
            <mxPoint x="393" y="160" as="targetPoint" />
          </mxGeometry>
        </mxCell>
        <mxCell id="ALNQ_rp1Pmp0EkHWgzeo-47" value="" style="endArrow=none;dashed=1;html=1;fontStyle=1;fontSize=20;" edge="1" parent="1">
          <mxGeometry width="50" height="50" relative="1" as="geometry">
            <mxPoint x="185" y="199.33999999999995" as="sourcePoint" />
            <mxPoint x="255" y="199.17" as="targetPoint" />
          </mxGeometry>
        </mxCell>
        <mxCell id="ALNQ_rp1Pmp0EkHWgzeo-50" value="&lt;font style=&quot;font-size: 22px&quot;&gt;&lt;b&gt;CsI&lt;br&gt;Crates&lt;/b&gt;&lt;/font&gt;" style="text;html=1;align=center;verticalAlign=middle;resizable=0;points=[];autosize=1;fontSize=18;" vertex="1" parent="1">
          <mxGeometry x="180" y="130" width="80" height="50" as="geometry" />
        </mxCell>
        <mxCell id="ALNQ_rp1Pmp0EkHWgzeo-52" value="" style="shape=flexArrow;endArrow=classic;html=1;opacity=90;strokeColor=#007FFF;fillColor=#007FFF;width=1;endWidth=12.857142857142858;endSize=3.628571428571429;strokeWidth=2;" edge="1" parent="1">
          <mxGeometry width="50" height="50" relative="1" as="geometry">
            <mxPoint x="90" y="40" as="sourcePoint" />
            <mxPoint x="90" y="90" as="targetPoint" />
          </mxGeometry>
        </mxCell>
        <mxCell id="ALNQ_rp1Pmp0EkHWgzeo-53" value="" style="shape=flexArrow;endArrow=classic;html=1;opacity=90;strokeColor=#007FFF;fillColor=#007FFF;width=1;endWidth=12.857142857142858;endSize=3.628571428571429;strokeWidth=2;" edge="1" parent="1">
          <mxGeometry width="50" height="50" relative="1" as="geometry">
            <mxPoint x="349.16999999999996" y="40" as="sourcePoint" />
            <mxPoint x="349.16999999999996" y="90" as="targetPoint" />
          </mxGeometry>
        </mxCell>
        <mxCell id="ALNQ_rp1Pmp0EkHWgzeo-57" value="&lt;pre&gt;&lt;font style=&quot;font-size: 18px&quot;&gt;Local CDT&lt;/font&gt;&lt;/pre&gt;" style="rounded=0;whiteSpace=wrap;html=1;fontStyle=1;fontSize=20;" vertex="1" parent="1">
          <mxGeometry x="30" y="430" width="120" height="40" as="geometry" />
        </mxCell>
        <mxCell id="ALNQ_rp1Pmp0EkHWgzeo-58" value="" style="endArrow=none;dashed=1;html=1;fontStyle=1;fontSize=20;" edge="1" parent="1">
          <mxGeometry width="50" height="50" relative="1" as="geometry">
            <mxPoint x="85" y="538" as="sourcePoint" />
            <mxPoint x="115" y="538" as="targetPoint" />
          </mxGeometry>
        </mxCell>
        <mxCell id="ALNQ_rp1Pmp0EkHWgzeo-59" value="&lt;br&gt;&lt;br&gt;&lt;br&gt;&lt;br&gt;&lt;br&gt;&lt;br&gt;&lt;br&gt;&lt;br&gt;&lt;br&gt;&lt;br&gt;&lt;br&gt;&lt;br&gt;&lt;br&gt;&lt;font style=&quot;font-size: 18px&quot;&gt;Local Crate&lt;/font&gt;" style="rounded=0;whiteSpace=wrap;html=1;fillColor=none;dashed=1;fontStyle=1" vertex="1" parent="1">
          <mxGeometry x="20" y="420" width="140" height="220" as="geometry" />
        </mxCell>
        <mxCell id="ALNQ_rp1Pmp0EkHWgzeo-60" value="&lt;font style=&quot;font-size: 16px&quot;&gt;A&lt;br style=&quot;padding: 0px ; margin: 0px&quot;&gt;D&lt;br style=&quot;padding: 0px ; margin: 0px&quot;&gt;C&lt;/font&gt;" style="shape=parallelogram;perimeter=parallelogramPerimeter;whiteSpace=wrap;html=1;fixedSize=1;fontSize=18;align=center;size=40;direction=north;flipV=1;" vertex="1" parent="1">
          <mxGeometry x="30" y="480" width="30" height="120" as="geometry" />
        </mxCell>
        <mxCell id="ALNQ_rp1Pmp0EkHWgzeo-61" value="&lt;font style=&quot;font-size: 16px&quot;&gt;A&lt;br style=&quot;padding: 0px ; margin: 0px&quot;&gt;D&lt;br style=&quot;padding: 0px ; margin: 0px&quot;&gt;C&lt;/font&gt;" style="shape=parallelogram;perimeter=parallelogramPerimeter;whiteSpace=wrap;html=1;fixedSize=1;fontSize=18;align=center;size=40;direction=north;flipV=1;" vertex="1" parent="1">
          <mxGeometry x="120" y="480" width="30" height="120" as="geometry" />
        </mxCell>
        <mxCell id="ALNQ_rp1Pmp0EkHWgzeo-62" value="&lt;font style=&quot;font-size: 16px&quot;&gt;A&lt;br style=&quot;padding: 0px ; margin: 0px&quot;&gt;D&lt;br style=&quot;padding: 0px ; margin: 0px&quot;&gt;C&lt;/font&gt;" style="shape=parallelogram;perimeter=parallelogramPerimeter;whiteSpace=wrap;html=1;fixedSize=1;fontSize=18;align=center;size=40;direction=north;flipV=1;" vertex="1" parent="1">
          <mxGeometry x="50" y="480" width="30" height="120" as="geometry" />
        </mxCell>
        <mxCell id="ALNQ_rp1Pmp0EkHWgzeo-63" value="" style="shape=flexArrow;endArrow=classic;html=1;opacity=90;strokeColor=#007FFF;fillColor=#007FFF;width=1;endWidth=12.857142857142858;endSize=3.628571428571429;" edge="1" parent="1">
          <mxGeometry width="50" height="50" relative="1" as="geometry">
            <mxPoint x="43" y="470" as="sourcePoint" />
            <mxPoint x="43" y="499.9999999999999" as="targetPoint" />
          </mxGeometry>
        </mxCell>
        <mxCell id="ALNQ_rp1Pmp0EkHWgzeo-64" value="" style="shape=flexArrow;endArrow=classic;html=1;opacity=90;strokeColor=#007FFF;fillColor=#007FFF;width=1;endWidth=12.857142857142858;endSize=3.628571428571429;" edge="1" parent="1">
          <mxGeometry width="50" height="50" relative="1" as="geometry">
            <mxPoint x="63" y="470" as="sourcePoint" />
            <mxPoint x="63" y="499.9999999999999" as="targetPoint" />
          </mxGeometry>
        </mxCell>
        <mxCell id="ALNQ_rp1Pmp0EkHWgzeo-65" value="" style="shape=flexArrow;endArrow=classic;html=1;opacity=90;strokeColor=#007FFF;fillColor=#007FFF;width=1;endWidth=12.857142857142858;endSize=3.628571428571429;" edge="1" parent="1">
          <mxGeometry width="50" height="50" relative="1" as="geometry">
            <mxPoint x="133" y="470" as="sourcePoint" />
            <mxPoint x="133" y="499.9999999999999" as="targetPoint" />
          </mxGeometry>
        </mxCell>
        <mxCell id="ALNQ_rp1Pmp0EkHWgzeo-66" value="&lt;pre&gt;&lt;font style=&quot;font-size: 18px&quot;&gt;Local CDT&lt;/font&gt;&lt;/pre&gt;" style="rounded=0;whiteSpace=wrap;html=1;fontStyle=1;fontSize=20;" vertex="1" parent="1">
          <mxGeometry x="290" y="430" width="120" height="40" as="geometry" />
        </mxCell>
        <mxCell id="ALNQ_rp1Pmp0EkHWgzeo-67" value="" style="endArrow=none;dashed=1;html=1;fontStyle=1;fontSize=20;" edge="1" parent="1">
          <mxGeometry width="50" height="50" relative="1" as="geometry">
            <mxPoint x="345" y="538" as="sourcePoint" />
            <mxPoint x="375" y="538" as="targetPoint" />
          </mxGeometry>
        </mxCell>
        <mxCell id="ALNQ_rp1Pmp0EkHWgzeo-68" value="&lt;br&gt;&lt;br&gt;&lt;br&gt;&lt;br&gt;&lt;br&gt;&lt;br&gt;&lt;br&gt;&lt;br&gt;&lt;br&gt;&lt;br&gt;&lt;br&gt;&lt;br&gt;&lt;br&gt;&lt;font style=&quot;font-size: 18px&quot;&gt;Local Crate&lt;/font&gt;" style="rounded=0;whiteSpace=wrap;html=1;fillColor=none;dashed=1;fontStyle=1" vertex="1" parent="1">
          <mxGeometry x="280" y="420" width="140" height="220" as="geometry" />
        </mxCell>
        <mxCell id="ALNQ_rp1Pmp0EkHWgzeo-69" value="&lt;font style=&quot;font-size: 16px&quot;&gt;A&lt;br style=&quot;padding: 0px ; margin: 0px&quot;&gt;D&lt;br style=&quot;padding: 0px ; margin: 0px&quot;&gt;C&lt;/font&gt;" style="shape=parallelogram;perimeter=parallelogramPerimeter;whiteSpace=wrap;html=1;fixedSize=1;fontSize=18;align=center;size=40;direction=north;flipV=1;" vertex="1" parent="1">
          <mxGeometry x="290" y="480" width="30" height="120" as="geometry" />
        </mxCell>
        <mxCell id="ALNQ_rp1Pmp0EkHWgzeo-70" value="&lt;font style=&quot;font-size: 16px&quot;&gt;A&lt;br style=&quot;padding: 0px ; margin: 0px&quot;&gt;D&lt;br style=&quot;padding: 0px ; margin: 0px&quot;&gt;C&lt;/font&gt;" style="shape=parallelogram;perimeter=parallelogramPerimeter;whiteSpace=wrap;html=1;fixedSize=1;fontSize=18;align=center;size=40;direction=north;flipV=1;" vertex="1" parent="1">
          <mxGeometry x="380" y="480" width="30" height="120" as="geometry" />
        </mxCell>
        <mxCell id="ALNQ_rp1Pmp0EkHWgzeo-71" value="&lt;font style=&quot;font-size: 16px&quot;&gt;A&lt;br style=&quot;padding: 0px ; margin: 0px&quot;&gt;D&lt;br style=&quot;padding: 0px ; margin: 0px&quot;&gt;C&lt;/font&gt;" style="shape=parallelogram;perimeter=parallelogramPerimeter;whiteSpace=wrap;html=1;fixedSize=1;fontSize=18;align=center;size=40;direction=north;flipV=1;" vertex="1" parent="1">
          <mxGeometry x="310" y="480" width="30" height="120" as="geometry" />
        </mxCell>
        <mxCell id="ALNQ_rp1Pmp0EkHWgzeo-72" value="" style="shape=flexArrow;endArrow=classic;html=1;opacity=90;strokeColor=#007FFF;fillColor=#007FFF;width=1;endWidth=12.857142857142858;endSize=3.628571428571429;" edge="1" parent="1">
          <mxGeometry width="50" height="50" relative="1" as="geometry">
            <mxPoint x="303" y="470" as="sourcePoint" />
            <mxPoint x="303" y="499.9999999999999" as="targetPoint" />
          </mxGeometry>
        </mxCell>
        <mxCell id="ALNQ_rp1Pmp0EkHWgzeo-73" value="" style="shape=flexArrow;endArrow=classic;html=1;opacity=90;strokeColor=#007FFF;fillColor=#007FFF;width=1;endWidth=12.857142857142858;endSize=3.628571428571429;" edge="1" parent="1">
          <mxGeometry width="50" height="50" relative="1" as="geometry">
            <mxPoint x="323" y="470" as="sourcePoint" />
            <mxPoint x="323" y="499.9999999999999" as="targetPoint" />
          </mxGeometry>
        </mxCell>
        <mxCell id="ALNQ_rp1Pmp0EkHWgzeo-74" value="" style="shape=flexArrow;endArrow=classic;html=1;opacity=90;strokeColor=#007FFF;fillColor=#007FFF;width=1;endWidth=12.857142857142858;endSize=3.628571428571429;" edge="1" parent="1">
          <mxGeometry width="50" height="50" relative="1" as="geometry">
            <mxPoint x="393" y="470" as="sourcePoint" />
            <mxPoint x="393" y="499.9999999999999" as="targetPoint" />
          </mxGeometry>
        </mxCell>
        <mxCell id="ALNQ_rp1Pmp0EkHWgzeo-75" value="" style="endArrow=none;dashed=1;html=1;fontStyle=1;fontSize=20;" edge="1" parent="1">
          <mxGeometry width="50" height="50" relative="1" as="geometry">
            <mxPoint x="184.9999999999999" y="539.34" as="sourcePoint" />
            <mxPoint x="254.9999999999999" y="539.1700000000001" as="targetPoint" />
          </mxGeometry>
        </mxCell>
        <mxCell id="ALNQ_rp1Pmp0EkHWgzeo-76" value="&lt;font style=&quot;font-size: 22px&quot;&gt;&lt;b&gt;Veto&lt;br&gt;Crates&lt;/b&gt;&lt;/font&gt;" style="text;html=1;align=center;verticalAlign=middle;resizable=0;points=[];autosize=1;fontSize=18;" vertex="1" parent="1">
          <mxGeometry x="180" y="470" width="80" height="50" as="geometry" />
        </mxCell>
        <mxCell id="ALNQ_rp1Pmp0EkHWgzeo-77" value="" style="shape=flexArrow;endArrow=classic;html=1;opacity=90;strokeColor=#007FFF;fillColor=#007FFF;width=1;endWidth=12.857142857142858;endSize=3.628571428571429;strokeWidth=2;" edge="1" parent="1">
          <mxGeometry width="50" height="50" relative="1" as="geometry">
            <mxPoint x="90" y="380" as="sourcePoint" />
            <mxPoint x="90" y="430" as="targetPoint" />
          </mxGeometry>
        </mxCell>
        <mxCell id="ALNQ_rp1Pmp0EkHWgzeo-78" value="" style="shape=flexArrow;endArrow=classic;html=1;opacity=90;strokeColor=#007FFF;fillColor=#007FFF;width=1;endWidth=12.857142857142858;endSize=3.628571428571429;strokeWidth=2;" edge="1" parent="1">
          <mxGeometry width="50" height="50" relative="1" as="geometry">
            <mxPoint x="349.1700000000001" y="380" as="sourcePoint" />
            <mxPoint x="349.1700000000001" y="430" as="targetPoint" />
          </mxGeometry>
        </mxCell>
        <mxCell id="ALNQ_rp1Pmp0EkHWgzeo-83" value="" style="html=1;shadow=0;dashed=0;align=center;verticalAlign=middle;shape=mxgraph.arrows2.bendArrow;dy=7.83;dx=31.33;notch=0;arrowHead=29.67;rounded=1;fontSize=18;fillColor=#007FFF;flipH=1;strokeColor=#FFFFFF;" vertex="1" parent="1">
          <mxGeometry x="80" y="20" width="423" height="70" as="geometry" />
        </mxCell>
        <mxCell id="ALNQ_rp1Pmp0EkHWgzeo-84" value="" style="html=1;shadow=0;dashed=0;align=center;verticalAlign=middle;shape=mxgraph.arrows2.bendArrow;dy=7.83;dx=31.33;notch=0;arrowHead=29.67;rounded=1;fontSize=18;fillColor=#007FFF;flipH=1;strokeColor=#FFFFFF;" vertex="1" parent="1">
          <mxGeometry x="80" y="360" width="423" height="70" as="geometry" />
        </mxCell>
        <mxCell id="ALNQ_rp1Pmp0EkHWgzeo-85" value="" style="html=1;shadow=0;dashed=0;align=center;verticalAlign=middle;shape=mxgraph.arrows2.bendArrow;dy=7.83;dx=31.33;notch=0;arrowHead=29.67;rounded=1;fontSize=18;fillColor=#007FFF;flipH=1;strokeColor=#FFFFFF;" vertex="1" parent="1">
          <mxGeometry x="540" y="140" width="90" height="80" as="geometry" />
        </mxCell>
        <mxCell id="ALNQ_rp1Pmp0EkHWgzeo-86" value="" style="html=1;shadow=0;dashed=0;align=center;verticalAlign=middle;shape=mxgraph.arrows2.bendArrow;dy=7.83;dx=31.33;notch=0;arrowHead=29.67;rounded=1;fontSize=18;fillColor=#007FFF;flipH=1;strokeColor=#FFFFFF;flipV=1;" vertex="1" parent="1">
          <mxGeometry x="540" y="420" width="90" height="80" as="geometry" />
        </mxCell>
        <mxCell id="ALNQ_rp1Pmp0EkHWgzeo-87" value="" style="html=1;shadow=0;dashed=0;align=center;verticalAlign=middle;shape=mxgraph.arrows2.arrow;dy=0.49;dx=19.78;notch=0;strokeColor=#FFFFFF;fillColor=#007FFF;fontSize=18;" vertex="1" parent="1">
          <mxGeometry x="670" y="250" width="60" height="35" as="geometry" />
        </mxCell>
        <mxCell id="ALNQ_rp1Pmp0EkHWgzeo-92" value="" style="html=1;shadow=0;dashed=0;align=center;verticalAlign=middle;shape=mxgraph.arrows2.arrow;dy=0.49;dx=19.78;notch=0;strokeColor=#FFFFFF;fillColor=#007FFF;fontSize=18;" vertex="1" parent="1">
          <mxGeometry x="670" y="352.5" width="60" height="35" as="geometry" />
        </mxCell>
        <mxCell id="ALNQ_rp1Pmp0EkHWgzeo-48" value="&lt;pre style=&quot;font-size: 20px&quot;&gt;Top&lt;/pre&gt;&lt;pre style=&quot;font-size: 20px&quot;&gt;CDT&lt;/pre&gt;" style="rounded=0;whiteSpace=wrap;html=1;fontStyle=1" vertex="1" parent="1">
          <mxGeometry x="580" y="220" width="90" height="200" as="geometry" />
        </mxCell>
        <mxCell id="ALNQ_rp1Pmp0EkHWgzeo-9" value="&lt;pre style=&quot;font-size: 20px&quot;&gt;Fanout&lt;/pre&gt;&lt;pre style=&quot;font-size: 20px&quot;&gt;CDT&lt;/pre&gt;" style="rounded=0;whiteSpace=wrap;html=1;fontStyle=1" vertex="1" parent="1">
          <mxGeometry x="450" y="90" width="90" height="200" as="geometry" />
        </mxCell>
        <mxCell id="ALNQ_rp1Pmp0EkHWgzeo-56" value="&lt;pre style=&quot;font-size: 20px&quot;&gt;Fanout&lt;/pre&gt;&lt;pre style=&quot;font-size: 20px&quot;&gt;CDT&lt;/pre&gt;" style="rounded=0;whiteSpace=wrap;html=1;fontStyle=1" vertex="1" parent="1">
          <mxGeometry x="450" y="430" width="90" height="200" as="geometry" />
        </mxCell>
      </root>
    </mxGraphModel>
  </diagram>
</mxfile>
